<?xml version="1.0" standalone="no"?>
<!DOCTYPE svg PUBLIC "-//W3C//DTD SVG 20010904//EN"
 "http://www.w3.org/TR/2001/REC-SVG-20010904/DTD/svg10.dtd">
<svg version="1.0" xmlns="http://www.w3.org/2000/svg"
 width="260.000000pt" height="260.000000pt" viewBox="0 0 260.000000 260.000000"
 preserveAspectRatio="xMidYMid meet">
<metadata>
Created by potrace 1.14, written by Peter Selinger 2001-2017
</metadata>
<g transform="translate(0.000000,260.000000) scale(0.100000,-0.100000)"
fill="#000000" stroke="none">
<path d="M1220 1773 c-120 -7 -303 -45 -468 -97 -173 -54 -212 -74 -212 -107
0 -23 -12 -26 -139 -39 -59 -6 -120 -18 -140 -28 -96 -46 -120 -238 -40 -321
31 -32 54 -44 26 -13 -24 27 -40 101 -32 156 12 93 37 119 145 151 45 14 88
29 94 34 6 5 28 13 48 19 37 10 37 10 44 -24 9 -47 -2 -381 -13 -418 -9 -29
-11 -30 -69 -27 -69 2 -118 16 -157 43 -16 11 -30 18 -32 16 -7 -7 101 -69
146 -85 23 -8 60 -16 82 -18 22 -2 49 -13 61 -23 11 -11 48 -28 81 -37 33 -10
94 -30 135 -46 41 -16 109 -36 151 -44 151 -31 413 -38 600 -17 95 11 119 17
289 66 47 13 105 27 130 31 79 13 84 14 112 35 25 19 37 20 136 14 103 -6 110
-6 144 17 20 13 43 35 51 49 9 14 24 34 34 45 19 21 38 86 48 172 14 108 -36
197 -133 239 -38 16 -46 18 -187 30 -50 4 -83 12 -88 20 -4 8 -12 14 -18 14
-5 0 -18 8 -29 18 -11 10 -43 26 -72 36 -29 10 -93 33 -143 51 -49 18 -119 41
-155 50 -69 18 -295 46 -345 43 -16 -1 -55 -3 -85 -5z m1069 -275 l93 -21 20
-45 c29 -64 26 -153 -5 -232 -56 -138 -100 -170 -232 -170 -77 0 -86 2 -75 15
10 12 11 68 5 249 l-7 233 53 -4 c30 -2 96 -14 148 -25z"/>
</g>
</svg>
