<?xml version="1.0" standalone="no"?>
<!DOCTYPE svg PUBLIC "-//W3C//DTD SVG 20010904//EN"
 "http://www.w3.org/TR/2001/REC-SVG-20010904/DTD/svg10.dtd">
<svg version="1.0" xmlns="http://www.w3.org/2000/svg"
 width="260.000000pt" height="260.000000pt" viewBox="0 0 260.000000 260.000000"
 preserveAspectRatio="xMidYMid meet">
<metadata>
Created by potrace 1.14, written by Peter Selinger 2001-2017
</metadata>
<g transform="translate(0.000000,260.000000) scale(0.100000,-0.100000)"
fill="#000000" stroke="none">
<path d="M295 2593 c-124 -27 -233 -125 -275 -248 -19 -55 -20 -91 -20 -1034
0 -1085 -2 -1048 67 -1149 45 -66 117 -119 194 -143 58 -18 109 -19 1029 -19
1003 0 1036 1 1108 41 68 39 86 55 127 111 80 108 77 53 73 1178 -2 622 -7
1001 -13 1010 -5 8 -10 21 -11 28 -4 21 -62 106 -88 130 -51 44 -103 72 -161
87 -52 13 -183 15 -1035 14 -536 -1 -984 -3 -995 -6z"/>
</g>
</svg>
