<svg width="66" height="50" viewBox="0 0 66 50" fill="none" xmlns="http://www.w3.org/2000/svg">
<g clip-path="url(#clip0)">
<path d="M12.6954 49.7515V46.4422C12.6954 45.1734 11.9215 44.3462 10.5951 44.3462C9.93195 44.3462 9.21346 44.5668 8.716 45.2839C8.32932 44.6771 7.77673 44.3462 6.94772 44.3462C6.39488 44.3462 5.84255 44.5116 5.40023 45.1184V44.4565H4.23967V49.7515H5.40023V46.8282C5.40023 45.8907 5.89768 45.4493 6.67156 45.4493C7.44493 45.4493 7.83212 45.9457 7.83212 46.8282V49.7515H8.99268V46.8282C8.99268 45.8907 9.54501 45.4493 10.2635 45.4493C11.0374 45.4493 11.4241 45.9457 11.4241 46.8282V49.7515H12.6954V49.7515ZM29.8825 44.4565H28.0037V42.857H26.8431V44.4565H25.7931V45.5043H26.8429V47.9314C26.8429 49.145 27.3403 49.8618 28.6668 49.8618C29.1643 49.8618 29.7166 49.6965 30.1038 49.4759L29.772 48.4829C29.4404 48.7035 29.0537 48.7588 28.7773 48.7588C28.2247 48.7588 28.0037 48.4279 28.0037 47.8761V45.5043H29.8825V44.4565V44.4565ZM39.7198 44.346C39.0567 44.346 38.6146 44.6771 38.3382 45.1184V44.4565H37.1777V49.7515H38.3382V46.7731C38.3382 45.8907 38.7249 45.3942 39.4434 45.3942C39.6644 45.3942 39.9408 45.4495 40.1619 45.5045L40.4934 44.4015C40.2724 44.3462 39.9408 44.3462 39.7198 44.3462V44.346ZM24.8536 44.8977C24.3007 44.5116 23.5271 44.3462 22.6981 44.3462C21.3719 44.3462 20.4878 45.0081 20.4878 46.056C20.4878 46.9387 21.1509 47.4349 22.3114 47.6005L22.864 47.6558C23.472 47.7658 23.8035 47.9314 23.8035 48.2073C23.8035 48.5932 23.3615 48.8691 22.5876 48.8691C21.814 48.8691 21.206 48.5932 20.8191 48.3176L20.2665 49.2C20.8744 49.6412 21.7034 49.8618 22.5322 49.8618C24.0797 49.8618 24.9641 49.145 24.9641 48.152C24.9641 47.2143 24.2456 46.7179 23.1402 46.5525L22.5876 46.4972C22.0901 46.442 21.7034 46.3319 21.7034 46.001C21.7034 45.6148 22.0901 45.3942 22.6981 45.3942C23.3615 45.3942 24.0246 45.6699 24.3561 45.8354L24.8536 44.8977V44.8977ZM55.6915 44.3462C55.0281 44.3462 54.586 44.6771 54.3096 45.1184V44.4565H53.1491V49.7515H54.3096V46.7731C54.3096 45.8907 54.6966 45.3942 55.4148 45.3942C55.6361 45.3942 55.9125 45.4495 56.1335 45.5045L56.4651 44.4015C56.2441 44.3462 55.9125 44.3462 55.6915 44.3462V44.3462ZM40.8804 47.104C40.8804 48.7035 41.9855 49.8618 43.6989 49.8618C44.4726 49.8618 45.0252 49.6965 45.5777 49.2553L45.0252 48.3176C44.5831 48.6485 44.141 48.8138 43.6436 48.8138C42.704 48.8138 42.0409 48.152 42.0409 47.104C42.0409 46.1113 42.704 45.4493 43.6436 45.3942C44.141 45.3942 44.5831 45.5596 45.0252 45.8907L45.5777 44.953C45.0252 44.5116 44.4726 44.3462 43.6989 44.3462C41.9855 44.3462 40.8804 45.5045 40.8804 47.104ZM51.6018 47.104V44.4565H50.4413V45.1184C50.0543 44.6221 49.5017 44.3462 48.7833 44.3462C47.2911 44.3462 46.1306 45.5045 46.1306 47.104C46.1306 48.7035 47.2911 49.8618 48.7833 49.8618C49.5569 49.8618 50.1097 49.5862 50.4413 49.0897V49.7515H51.6018V47.104V47.104ZM47.3463 47.104C47.3463 46.1663 47.9542 45.3942 48.9489 45.3942C49.8884 45.3942 50.5518 46.1113 50.5518 47.104C50.5518 48.0417 49.8884 48.8138 48.9489 48.8138C47.9542 48.7586 47.3463 48.0417 47.3463 47.104V47.104ZM33.4749 44.3462C31.9274 44.3462 30.822 45.4493 30.822 47.104C30.822 48.7588 31.9272 49.8618 33.5301 49.8618C34.3037 49.8618 35.0776 49.6412 35.6855 49.145L35.1327 48.3176C34.6906 48.6485 34.138 48.8691 33.5855 48.8691C32.867 48.8691 32.1485 48.5382 31.9826 47.6003H35.9066V47.1593C35.962 45.4493 34.9671 44.3462 33.4747 44.3462H33.4749ZM33.4749 45.339C34.1932 45.339 34.6909 45.7804 34.8012 46.6078H32.038C32.1485 45.8907 32.6459 45.339 33.4749 45.339ZM62.2679 47.104V42.3606H61.1073V45.1184C60.7204 44.6221 60.1678 44.3462 59.4493 44.3462C57.9572 44.3462 56.7967 45.5045 56.7967 47.104C56.7967 48.7035 57.9572 49.8618 59.4493 49.8618C60.2232 49.8618 60.7758 49.5862 61.1073 49.0897V49.7515H62.2679V47.104V47.104ZM58.0126 47.104C58.0126 46.1663 58.6203 45.3942 59.6152 45.3942C60.5547 45.3942 61.2179 46.1113 61.2179 47.104C61.2179 48.0417 60.5547 48.8138 59.6152 48.8138C58.6203 48.7586 58.0126 48.0417 58.0126 47.104V47.104ZM19.2164 47.104V44.4565H18.0559V45.1184C17.6689 44.6221 17.1163 44.3462 16.3979 44.3462C14.9057 44.3462 13.7452 45.5045 13.7452 47.104C13.7452 48.7035 14.9057 49.8618 16.3979 49.8618C17.1717 49.8618 17.7243 49.5862 18.0559 49.0897V49.7515H19.2164V47.104V47.104ZM14.9057 47.104C14.9057 46.1663 15.5137 45.3942 16.5084 45.3942C17.4479 45.3942 18.1112 46.1113 18.1112 47.104C18.1112 48.0417 17.4479 48.8138 16.5084 48.8138C15.5137 48.7586 14.9057 48.0417 14.9057 47.104V47.104Z" fill="black"/>
<path d="M24.4666 4.24695H41.875V35.4658H24.4666V4.24695Z" fill="#FF5F00"/>
<path d="M25.5721 19.8565C25.5721 13.5136 28.5563 7.88744 33.1431 4.24698C29.7722 1.5995 25.5169 0 20.8747 0C9.87657 0 0.979034 8.88015 0.979034 19.8565C0.979034 30.8327 9.87657 39.7131 20.8744 39.7131C25.5167 39.7131 29.772 38.1136 33.1431 35.4658C28.5563 31.8807 25.5721 26.1995 25.5721 19.8565V19.8565Z" fill="#EB001B"/>
<path d="M65.3626 19.8565C65.3626 30.8327 56.4651 39.7131 45.4672 39.7131C40.825 39.7131 36.5697 38.1136 33.1985 35.4658C37.8407 31.8256 40.7698 26.1995 40.7698 19.8565C40.7698 13.5136 37.7854 7.88744 33.1985 4.24698C36.5694 1.5995 40.825 0 45.4672 0C56.4651 0 65.3629 8.93543 65.3629 19.8565H65.3626Z" fill="#F79E1B"/>
</g>
<defs>
<clipPath id="clip0">
<rect x="0.979034" width="64.4475" height="50" rx="10" fill="white"/>
</clipPath>
</defs>
</svg>
