<svg width="43" height="50" viewBox="0 0 43 50" fill="none" xmlns="http://www.w3.org/2000/svg">
<g clip-path="url(#clip0)">
<path d="M36.5846 3.89189C34.2825 1.26242 30.1212 0.135101 24.7977 0.135101H9.34726C8.82054 0.135121 8.31111 0.323436 7.91055 0.666189C7.50999 1.00894 7.24458 1.48365 7.16203 2.00497L0.728761 42.8935C0.600889 43.6998 1.22389 44.43 2.03937 44.43H11.5779L13.9735 29.203L13.8991 29.6798C14.0698 28.6035 14.9883 27.8096 16.0761 27.8096H20.6088C29.5133 27.8096 36.4856 24.1851 38.5223 13.7002C38.5828 13.3901 38.6352 13.0882 38.6804 12.7934C38.4234 12.657 38.4234 12.657 38.6804 12.7934C39.2869 8.91805 38.6763 6.28013 36.5846 3.89189" fill="#27346A"/>
<path d="M17.6233 11.3974C17.884 11.2729 18.1693 11.2084 18.4581 11.2086H30.5709C32.0053 11.2086 33.3431 11.3022 34.5657 11.4993C34.9078 11.554 35.2481 11.6193 35.5862 11.695C36.0654 11.801 36.539 11.9307 37.0054 12.0836C37.6064 12.2848 38.1661 12.519 38.6806 12.7934C39.2869 8.91656 38.6763 6.28013 36.5846 3.89189C34.2812 1.26242 30.1212 0.135101 24.7977 0.135101H9.34593C8.25802 0.135101 7.33252 0.92881 7.16202 2.00497L0.728754 42.8921C0.600882 43.6997 1.22389 44.4288 2.03804 44.4288H11.5779L16.5479 12.8444C16.5968 12.5339 16.7202 12.24 16.9075 11.988C17.0948 11.7359 17.3405 11.5332 17.6233 11.3974V11.3974Z" fill="#27346A"/>
<path d="M38.5223 13.7002C36.4856 24.1836 29.5134 27.8096 20.6088 27.8096H16.0747C14.987 27.8096 14.0683 28.6035 13.8993 29.6798L10.919 48.6128C10.8077 49.3184 11.3522 49.9578 12.0646 49.9578H20.1054C20.566 49.9577 21.0114 49.7929 21.3616 49.493C21.7118 49.1932 21.9437 48.778 22.0157 48.322L22.094 47.9114L23.6095 38.2863L23.7071 37.7543C23.7791 37.2984 24.011 36.8832 24.3611 36.5834C24.7113 36.2835 25.1567 36.1187 25.6173 36.1186H26.8206C34.6098 36.1186 40.7088 32.9474 42.4911 23.7758C43.2351 19.9431 42.8501 16.7431 40.8822 14.4954C40.2852 13.8146 39.544 13.2523 38.6804 12.7934C38.6336 13.0898 38.5829 13.3901 38.5223 13.7002V13.7002Z" fill="#2790C3"/>
<path d="M36.5489 11.9417C36.2313 11.8488 35.9107 11.7665 35.5877 11.695C35.2494 11.6205 34.9091 11.5557 34.5672 11.5007C33.3433 11.3021 32.0064 11.2084 30.5708 11.2084H18.4594C18.1704 11.2078 17.8849 11.2728 17.6246 11.3987C17.3415 11.5341 17.0956 11.7367 16.9082 11.9888C16.7208 12.2409 16.5975 12.5351 16.5491 12.8457L13.9748 29.203L13.9004 29.6798C14.0698 28.6035 14.9883 27.8096 16.0762 27.8096H20.6103C29.5147 27.8096 36.4869 24.1851 38.5236 13.7002C38.5843 13.3901 38.6351 13.0896 38.6819 12.7934C38.1661 12.5205 37.6079 12.2848 37.0067 12.0849C36.855 12.0345 36.7024 11.9868 36.549 11.9417" fill="#1F264F"/>
</g>
<defs>
<clipPath id="clip0">
<rect x="0.706268" width="42.2937" height="50" rx="10" fill="white"/>
</clipPath>
</defs>
</svg>
