<svg width="101" height="32" viewBox="0 0 101 32" fill="none" xmlns="http://www.w3.org/2000/svg">
<g clip-path="url(#clip0)">
<path d="M52.0792 10.1891C52.0218 14.629 56.1163 17.1065 59.2006 18.5797C62.3694 20.091 63.4339 21.0603 63.4213 22.412C63.3977 24.4804 60.8936 25.3934 58.5503 25.4288C54.4622 25.4909 52.0851 24.347 50.1955 23.4818L48.7227 30.2362C50.6187 31.0924 54.1294 31.8392 57.7699 31.872C66.3156 31.872 71.9064 27.7375 71.9367 21.327C71.9701 13.1913 60.4554 12.741 60.534 9.10459C60.5612 8.00194 61.6347 6.82526 63.9869 6.52608C65.1513 6.37495 68.3654 6.25929 72.0094 7.90401L73.4397 1.36907C71.48 0.669698 68.9613 1.0747e-05 65.8255 1.0747e-05C57.7821 1.0747e-05 52.1249 4.19085 52.0792 10.1891V10.1891ZM87.1828 0.562902C85.6223 0.562902 84.3073 1.45505 83.7204 2.82411L71.5134 31.392H80.0528L81.7521 26.789H92.1871L93.1728 31.392H100.699L94.1314 0.562902H87.1828V0.562902ZM88.3774 8.891L90.8418 20.4677H84.0926L88.3774 8.891V8.891ZM41.7257 0.563287L34.9946 31.3916H43.1319L49.8599 0.562517H41.7257V0.563287ZM29.6878 0.562517L21.2181 21.5464L17.7919 3.70469C17.3899 1.71298 15.8023 0.562902 14.0393 0.562902H0.193925L0 1.45813C2.84239 2.06266 6.07185 3.0377 8.02841 4.08097C9.22579 4.71828 9.56722 5.27538 9.96058 6.78979L16.4498 31.392H25.0489L38.2327 0.562902H29.6878" fill="url(#paint0_linear)"/>
</g>
<defs>
<linearGradient id="paint0_linear" x1="46.2955" y1="32.5114" x2="47.1998" y2="-0.222669" gradientUnits="userSpaceOnUse">
<stop stop-color="#222357"/>
<stop offset="1" stop-color="#254AA5"/>
</linearGradient>
<clipPath id="clip0">
<rect width="100.699" height="32" rx="10" fill="white"/>
</clipPath>
</defs>
</svg>
